<svg xmlns="http://www.w3.org/2000/svg" viewBox="0 0 500 500"><defs><style>.cls-1{fill:#0450d5;}.cls-2{fill:#ffd45e;}.cls-3{fill:#cae6fe;}.cls-15,.cls-16,.cls-4{fill:#fff;}.cls-5{fill:#007ce6;}.cls-6{fill:#61b3ff;}.cls-7{fill:#61c2ff;}.cls-8{fill:#abd3f2;}.cls-9{fill:#90c3ef;}.cls-10{fill:#3b3e7d;}.cls-11{fill:#18285d;}.cls-12{fill:#e9e2e8;}.cls-13{fill:#005ec9;}.cls-14{fill:#009ef3;}.cls-15{opacity:0.2;}.cls-16{opacity:0.3;}</style></defs><title>img</title><g id="BACKGROUND"><rect class="cls-1" width="500" height="500"/></g><g id="OBJECTS"><path class="cls-2" d="M317.09,100.86A5.17,5.17,0,0,1,312,106H201.8a5.16,5.16,0,0,1-5.14-5.16,5.17,5.17,0,0,1,5.14-5.15H207a13.42,13.42,0,0,1,21.85-4.16,18.66,18.66,0,0,1,16.08-9.2,18.88,18.88,0,0,1,5.41.8,21.32,21.32,0,0,1,39.38,4.31,13.26,13.26,0,0,1,6-1.42,13.42,13.42,0,0,1,12.9,9.67H312A5.16,5.16,0,0,1,317.09,100.86Z"/><path class="cls-2" d="M163.65,81.35A3.78,3.78,0,0,1,162.54,84a3.74,3.74,0,0,1-2.67,1.11h-81a3.78,3.78,0,0,1-2.67-6.46,3.75,3.75,0,0,1,2.67-1.12H82.7a9.87,9.87,0,0,1,16.07-3,13.71,13.71,0,0,1,15.8-6.18,15.68,15.68,0,0,1,29,3.16,9.88,9.88,0,0,1,13.9,6.07h2.44A3.8,3.8,0,0,1,163.65,81.35Z"/><path class="cls-2" d="M437.9,76.83a3.79,3.79,0,0,1-1.12,2.68,3.74,3.74,0,0,1-2.67,1.11h-81a3.79,3.79,0,0,1-3.78-3.79A3.81,3.81,0,0,1,353.11,73h3.83A9.87,9.87,0,0,1,373,70a13.71,13.71,0,0,1,15.8-6.17,15.68,15.68,0,0,1,29,3.16A9.88,9.88,0,0,1,431.67,73h2.44A3.81,3.81,0,0,1,437.9,76.83Z"/><path class="cls-3" d="M453.86,245a15.25,15.25,0,0,0-4,1.37l-4.2-4.66-5.12,4.6,4,4.47a15.22,15.22,0,0,0-2.18,4l-7-.36L435,261.2l6.48.33a15.51,15.51,0,0,0,1.61,5.6l-4.66,4.2,4.6,5.11,4.47-4a15.5,15.5,0,0,0,4.76,2.45l-.3,5.82,6.87.36.29-5.63a15.41,15.41,0,0,0,5.81-2.09l4,4.46,5.12-4.61-4.21-4.66a15.78,15.78,0,0,0,1.78-3.79l6.63.34.36-6.87-6.44-.34a15.36,15.36,0,0,0-2.09-5.8l4.46-4L470,242.92l-4.66,4.2a15.62,15.62,0,0,0-4.59-2l.33-6.44-6.87-.36Zm7.74,10.94a6.31,6.31,0,1,1-8.9-.47A6.31,6.31,0,0,1,461.6,255.89Z"/><path class="cls-4" d="M69.68,159.43a15.34,15.34,0,0,0-4,1.38l-4.21-4.67-5.11,4.61,4,4.46a15.26,15.26,0,0,0-2.19,4l-7-.36-.36,6.87,6.48.34A15.52,15.52,0,0,0,59,181.61l-4.66,4.2,4.6,5.12,4.47-4a15.39,15.39,0,0,0,4.76,2.45l-.31,5.83,6.88.35L75,189.9a15.41,15.41,0,0,0,5.81-2.09l4,4.46,5.11-4.6L85.73,183a15.6,15.6,0,0,0,1.78-3.79l6.63.35.36-6.88-6.44-.33a15.2,15.2,0,0,0-2.1-5.81l4.47-4-4.61-5.12-4.66,4.21a15.39,15.39,0,0,0-4.59-2l.33-6.44L70,152.8Zm7.75,10.94a6.31,6.31,0,1,1-8.91-.46A6.32,6.32,0,0,1,77.43,170.37Z"/><path class="cls-3" d="M446.45,215.12a8.53,8.53,0,0,0-2.16.75l-2.3-2.55-2.79,2.52,2.2,2.44a8.32,8.32,0,0,0-1.19,2.16l-3.84-.2-.2,3.76,3.54.18a8.59,8.59,0,0,0,.88,3.06L438,229.53l2.52,2.8,2.44-2.2a8.46,8.46,0,0,0,2.6,1.34l-.16,3.18,3.75.2.16-3.08a8.3,8.3,0,0,0,3.18-1.15l2.2,2.45,2.79-2.52-2.3-2.55a8.3,8.3,0,0,0,1-2.07l3.63.18.19-3.75-3.52-.18a8.45,8.45,0,0,0-1.14-3.18l2.44-2.2L455.27,214l-2.55,2.3a8.52,8.52,0,0,0-2.51-1.11l.19-3.51-3.76-.2Zm4.24,6a3.45,3.45,0,1,1-4.87-.25A3.45,3.45,0,0,1,450.69,221.09Z"/><path class="cls-4" d="M44.31,204.68a8.53,8.53,0,0,0-2.16.75l-2.3-2.55-2.79,2.52,2.2,2.44A8.32,8.32,0,0,0,38.07,210l-3.84-.2-.2,3.76,3.54.18a8.53,8.53,0,0,0,.88,3.06l-2.55,2.3,2.52,2.79,2.44-2.2a8.46,8.46,0,0,0,2.6,1.34l-.16,3.18,3.75.2.16-3.08a8.45,8.45,0,0,0,3.18-1.14l2.2,2.44,2.79-2.52-2.3-2.55a8.3,8.3,0,0,0,1-2.07l3.63.19.19-3.76-3.52-.18a8.45,8.45,0,0,0-1.14-3.18l2.44-2.2-2.52-2.79-2.55,2.3a8.24,8.24,0,0,0-2.51-1.1l.19-3.52-3.76-.2Zm4.24,6a3.44,3.44,0,1,1-4.87-.26A3.44,3.44,0,0,1,48.55,210.66Z"/><ellipse class="cls-3" cx="240.29" cy="434.74" rx="219.38" ry="16.26"/><path class="cls-5" d="M386.87,214.62A5.92,5.92,0,1,1,381,208.7,5.93,5.93,0,0,1,386.87,214.62Zm-1.85,0a4.07,4.07,0,1,0-4.07,4.06A4.07,4.07,0,0,0,385,214.62Z"/><path class="cls-6" d="M413,197.33a5.92,5.92,0,1,1-5.92-5.92A5.92,5.92,0,0,1,413,197.33Zm-1.86,0A4.06,4.06,0,1,0,407,201.4,4.06,4.06,0,0,0,411.09,197.33Z"/><path class="cls-5" d="M409.65,175a.93.93,0,0,0-.93.93V180a.93.93,0,1,0,1.85,0v-4.1A.93.93,0,0,0,409.65,175Z"/><path class="cls-5" d="M409.65,167.83a.92.92,0,0,0-.93.93v4.09a.93.93,0,1,0,1.85,0v-4.09A.92.92,0,0,0,409.65,167.83Z"/><path class="cls-5" d="M415.39,173.46h-3.67a.93.93,0,0,0,0,1.86h3.67a.93.93,0,1,0,0-1.86Z"/><path class="cls-5" d="M407.58,173.46H403.9a.93.93,0,0,0,0,1.86h3.68a.93.93,0,1,0,0-1.86Z"/><path class="cls-7" d="M377.58,190.45a.93.93,0,0,0-.93.93v4.1a.93.93,0,0,0,1.86,0v-4.1A.93.93,0,0,0,377.58,190.45Z"/><path class="cls-7" d="M377.58,183.29a.93.93,0,0,0-.93.92v4.1a.93.93,0,0,0,1.86,0v-4.1A.93.93,0,0,0,377.58,183.29Z"/><path class="cls-7" d="M383.33,188.92h-3.68a.93.93,0,1,0,0,1.85h3.68a.93.93,0,1,0,0-1.85Z"/><path class="cls-7" d="M375.51,188.92h-3.68a.93.93,0,1,0,0,1.85h3.68a.93.93,0,1,0,0-1.85Z"/><path class="cls-5" d="M120.42,111.94a5.92,5.92,0,1,1,5.92-5.92A5.92,5.92,0,0,1,120.42,111.94Zm0-1.86a4.06,4.06,0,1,0-4.06-4.06A4.06,4.06,0,0,0,120.42,110.08Z"/><path class="cls-6" d="M137.34,131.5a5.92,5.92,0,1,1,5.92-5.92A5.93,5.93,0,0,1,137.34,131.5Zm0-1.86a4.07,4.07,0,1,0-4.06-4.06A4.07,4.07,0,0,0,137.34,129.64Z"/><path class="cls-5" d="M152.41,101.72a.93.93,0,0,0-.93-.93h-4.09a.93.93,0,1,0,0,1.86h4.09A.93.93,0,0,0,152.41,101.72Z"/><path class="cls-5" d="M159.58,101.72a.93.93,0,0,0-.93-.93h-4.09a.93.93,0,0,0,0,1.86h4.09A.93.93,0,0,0,159.58,101.72Z"/><path class="cls-5" d="M154,107.47v-3.68a.93.93,0,1,0-1.86,0v3.68a.93.93,0,1,0,1.86,0Z"/><path class="cls-5" d="M154,99.65V96a.93.93,0,0,0-1.86,0v3.68a.93.93,0,0,0,1.86,0Z"/><path class="cls-7" d="M105.91,136.31a.93.93,0,0,0-.93-.92h-4.09a.93.93,0,1,0,0,1.85H105A.93.93,0,0,0,105.91,136.31Z"/><path class="cls-7" d="M113.08,136.31a.93.93,0,0,0-.93-.92h-4.1a.93.93,0,1,0,0,1.85h4.1A.93.93,0,0,0,113.08,136.31Z"/><path class="cls-7" d="M107.44,142.06v-3.68a.93.93,0,0,0-1.85,0v3.68a.93.93,0,1,0,1.85,0Z"/><path class="cls-7" d="M107.44,134.25v-3.68a.93.93,0,1,0-1.85,0v3.68a.93.93,0,0,0,1.85,0Z"/><path class="cls-8" d="M327.07,157.91l2.37,1.4,1.25.74,3.55,2.1s67.2-33.61,58.62-64.32c-2.65-9.45-16.37-11.91-30.21,14.71C349.81,137.21,327.07,157.91,327.07,157.91Z"/><path class="cls-9" d="M329.44,159.31l1.25.74c14.11-9.55,26.09-21.87,33.92-30.89a208.15,208.15,0,0,0,15-19.3.66.66,0,0,0-1.1-.73,204.32,204.32,0,0,1-14.88,19.19C355.73,137.38,343.65,149.79,329.44,159.31Z"/><path class="cls-3" d="M314.77,165.88,317,169l1.19,1.63,3.36,4.61s103.63-6,109.5-49.65c1.81-13.43-14.26-24.05-46.37,2.17C354.92,152,314.77,165.88,314.77,165.88Z"/><path class="cls-8" d="M317,169l1.19,1.63c23.12-4.42,45.05-13.51,59.91-20.69a286.17,286.17,0,0,0,29.54-16.33.91.91,0,1,0-1-1.52,285.15,285.15,0,0,1-29.36,16.22C362.35,155.47,340.24,164.63,317,169Z"/><path class="cls-8" d="M189.31,384.38l-2.38,1.39-1.25.73-3.57,2.09s-67-34-58.22-64.68c2.7-9.44,16.43-11.82,30.12,14.89C166.7,363.55,189.31,384.38,189.31,384.38Z"/><path class="cls-9" d="M186.93,385.77l-1.25.73c-14.06-9.63-26-22-33.74-31.09A205.19,205.19,0,0,1,137.09,336a.66.66,0,1,1,1.11-.71A202.33,202.33,0,0,0,153,354.57C160.77,363.68,172.78,376.17,186.93,385.77Z"/><path class="cls-3" d="M201.56,392.43l-2.25,3.05-1.2,1.62-3.39,4.59s-103.59-6.61-109.2-50.3c-1.72-13.45,14.41-24,46.36,2.45C161.49,378.33,201.56,392.43,201.56,392.43Z"/><path class="cls-8" d="M199.31,395.48l-1.2,1.62c-23.1-4.55-45-13.78-59.78-21.05a280.87,280.87,0,0,1-29.44-16.51.91.91,0,1,1,1-1.51,281.12,281.12,0,0,0,29.26,16.4C154.05,381.73,176.1,391,199.31,395.48Z"/><path class="cls-8" d="M328.25,341.8c13.1-16.86,25.78-35.24,32.75-48.4,9.1-17.2,12.75-31,10.85-41a1.23,1.23,0,0,0-1.43-1,1.22,1.22,0,0,0-1,1.43c3.33,17.46-11.87,48.05-44,88.52Z"/><path class="cls-3" d="M367.84,277.39s8.47,5.7,17.89-9.58C385.73,267.81,370.3,262.77,367.84,277.39Z"/><path class="cls-3" d="M363.39,285.52s6.15-8.14-8.58-18.4C354.81,267.12,348.92,282.25,363.39,285.52Z"/><path class="cls-3" d="M371,260.3s8.52-5.62-1.95-20.21C369,240.09,358.45,252.39,371,260.3Z"/><path class="cls-3" d="M354.93,302.15s6,8.22,20.08-3C375,299.18,362.19,289.22,354.93,302.15Z"/><path class="cls-3" d="M349.14,309.74s7.47-6.95-5.26-19.6C343.88,290.14,335.46,304,349.14,309.74Z"/><path class="cls-3" d="M342.24,320.93s5.89,8.33,20.14-2.59C362.38,318.34,349.75,308.14,342.24,320.93Z"/><path class="cls-8" d="M182.76,236.78c-17.33-12.46-34.69-26.5-45.1-37.16-13.59-13.92-21-26.1-22-36.22a1.24,1.24,0,0,1,1.1-1.34,1.22,1.22,0,0,1,1.33,1.1c1.74,17.69,25,42.73,67.22,72.47Z"/><path class="cls-3" d="M126.58,186.2s-6.52,7.86-19.88-4.13C106.7,182.07,120.08,172.88,126.58,186.2Z"/><path class="cls-3" d="M133.15,192.74s-8.21-6.06,3-20.07C136.16,172.67,146.09,185.51,133.15,192.74Z"/><path class="cls-3" d="M118.72,170.7s-9.76-3-3.85-19.93C114.87,150.77,128.51,159.57,118.72,170.7Z"/><path class="cls-3" d="M146,206.3s-3.47,9.59-20.1,2.83C125.86,209.13,135.33,196,146,206.3Z"/><path class="cls-3" d="M153.66,212s-9.13-4.56-.5-20.3C153.16,191.65,165.16,202.59,153.66,212Z"/><path class="cls-3" d="M163.44,220.72s-3.29,9.66-20.05,3.22C143.39,223.94,152.62,210.58,163.44,220.72Z"/><path class="cls-10" d="M348.21,132.23V417.56A16.19,16.19,0,0,1,332,433.75H189.93a16.18,16.18,0,0,1-16.2-16.19V132.23a16.2,16.2,0,0,1,16.2-16.2H332a16.19,16.19,0,0,1,16.19,16.2Z"/><path class="cls-11" d="M342.18,132.23V417.56A16.19,16.19,0,0,1,326,433.75H183.89a16.18,16.18,0,0,1-16.19-16.19V132.23A16.19,16.19,0,0,1,183.89,116H326a16.19,16.19,0,0,1,16.2,16.2Z"/><path class="cls-11" d="M345.25,186.21h2.24a3.78,3.78,0,0,0,3.78-3.78V164.22a3.78,3.78,0,0,0-3.78-3.78h-2.24Z"/><path class="cls-11" d="M167.7,186.21h-1.76a3,3,0,0,1-3-3V163.41a3,3,0,0,1,3-3h1.76Z"/><path class="cls-11" d="M167.7,220h-1.76a3,3,0,0,1-3-3V197.21a3,3,0,0,1,3-3h1.76Z"/><path class="cls-4" d="M334.1,131.24v287.3a7.14,7.14,0,0,1-7.14,7.13h-144a7.12,7.12,0,0,1-6.56-4.34,7,7,0,0,1-.57-2.79V131.24a7.13,7.13,0,0,1,7.13-7.13H327a7.67,7.67,0,0,1,1.37.13,7.06,7.06,0,0,1,1.44.44,7.17,7.17,0,0,1,4.23,5.39A7.59,7.59,0,0,1,334.1,131.24Z"/><path class="cls-5" d="M298.39,372.83V398.6a3.3,3.3,0,0,1-3.42,3.17H218.68a3.3,3.3,0,0,1-3.42-3.17V372.83a3.3,3.3,0,0,1,3.42-3.17H295A3.3,3.3,0,0,1,298.39,372.83Z"/><rect class="cls-12" x="176.23" y="212.73" width="72.07" height="127.53"/><path class="cls-11" d="M270.77,202.8V335.32a13.93,13.93,0,0,1-9.52,13.18,13.76,13.76,0,0,1-4.37.72,13.94,13.94,0,0,1-13.9-13.9V202.8a13.93,13.93,0,0,1,13.9-13.9,13.75,13.75,0,0,1,4.37.71,14,14,0,0,1,9.52,13.19Z"/><path class="cls-10" d="M270.77,202.8V335.32a13.93,13.93,0,0,1-9.52,13.18,13.94,13.94,0,0,1-9.52-13.18V202.8a14,14,0,0,1,9.52-13.19,14,14,0,0,1,9.52,13.19Z"/><path class="cls-12" d="M334.1,131.24v29.55H175.78V131.24a7.13,7.13,0,0,1,7.13-7.13H327a7.67,7.67,0,0,1,1.37.13,7.06,7.06,0,0,1,1.44.44,7.17,7.17,0,0,1,4.23,5.39A7.59,7.59,0,0,1,334.1,131.24Z"/><path class="cls-5" d="M171.73,161.78l0,.05v9.88a14.85,14.85,0,0,1-29.6,1.66,15.25,15.25,0,0,1-.09-1.66V162l36.25-36.25a5.69,5.69,0,0,1,4-1.66h26.52Z"/><path class="cls-13" d="M171.69,161.83v9.88a14.85,14.85,0,0,1-29.6,1.66L142,162l29.73-.24Z"/><path class="cls-5" d="M268.18,124.11,231.09,161.2v10.51a14.85,14.85,0,0,1-29.7,0V161.53l37.09-37.42Z"/><path class="cls-13" d="M231.09,161.29v10.42a14.85,14.85,0,0,1-29.7,0V161.53Z"/><path class="cls-5" d="M291.36,160.79v10.92a14.85,14.85,0,0,1-14.85,14.84c-8.2,0-15.75-6.64-15.75-14.84l.06-10.51L261,161l36.87-36.93h30.6Z"/><path class="cls-13" d="M291.37,171.71a14.85,14.85,0,0,1-14.85,14.84c-8.2,0-15.75-6.64-15.75-14.84l.06-10.51L261,161l30.37-.25Z"/><path class="cls-4" d="M321.05,160.54h0v11.16a14.85,14.85,0,0,1-29.7,0V160.79l37-36.55a7.06,7.06,0,0,1,1.44.44,7.17,7.17,0,0,1,4.23,5.39,7.59,7.59,0,0,1,.1,1.17v16.49Z"/><path class="cls-12" d="M321.06,171.71a14.85,14.85,0,0,1-29.7,0V160.79l29.69-.24Z"/><path class="cls-4" d="M238.47,124.11l-37.09,37.42v10.18a14.85,14.85,0,0,1-29.69,0v-9.88l0-.05,37.05-37.67Z"/><path class="cls-12" d="M201.38,161.53v10.18a14.85,14.85,0,0,1-29.69,0v-9.88l0-.05Z"/><path class="cls-4" d="M297.86,124.11,260.77,161.2v10.51a14.85,14.85,0,0,1-29.69,0V161.2l37.1-37.09Z"/><path class="cls-12" d="M260.93,161l-.16.16v10.51a14.85,14.85,0,0,1-29.69,0V161.29Z"/><path class="cls-5" d="M265,214.32V324a8.94,8.94,0,0,1-8.94,8.93H69.77A8.92,8.92,0,0,1,60.84,324V214.32a8.93,8.93,0,0,1,8.93-8.93H256A8.94,8.94,0,0,1,265,214.32Z"/><rect class="cls-10" x="60.84" y="227.94" width="204.11" height="24.31"/><rect class="cls-14" x="202.2" y="299.63" width="48.01" height="16.82" rx="4.24"/><rect class="cls-14" x="72.69" y="271.91" width="15.6" height="9.17" rx="1.07"/><rect class="cls-14" x="100.16" y="271.91" width="15.6" height="9.17" rx="1.07"/><rect class="cls-14" x="127.63" y="271.91" width="15.6" height="9.17" rx="1.07"/><rect class="cls-14" x="155.1" y="271.91" width="15.6" height="9.17" rx="1.07"/><rect class="cls-14" x="182.57" y="271.91" width="15.6" height="9.17" rx="1.07"/><rect class="cls-14" x="210.04" y="271.91" width="15.6" height="9.17" rx="1.07"/><rect class="cls-14" x="237.51" y="271.91" width="15.6" height="9.17" rx="1.07"/><rect class="cls-14" x="60.84" y="215.06" width="204.11" height="4.66"/><rect class="cls-14" x="72.69" y="291.37" width="27.47" height="27.47" rx="6.93"/><rect class="cls-14" x="106.71" y="304.25" width="88.93" height="7.57" rx="2.38"/><path class="cls-15" d="M189.33,205.39,64,330.77A8.94,8.94,0,0,1,60.84,324V285.52L141,205.39Z"/><polygon class="cls-15" points="255.64 205.39 128.11 332.92 104.45 332.92 231.98 205.39 255.64 205.39"/><path class="cls-4" d="M417.1,436.42H399c-2.46,0-4.65-2.79-5.41-6.91l-7.67-41.57c-.32-1.7.36-3.47,1.37-3.61a151.46,151.46,0,0,1,41.51,0c1,.14,1.69,1.9,1.38,3.6l-7.68,41.58C421.74,433.63,419.56,436.42,417.1,436.42Z"/><ellipse class="cls-4" cx="408.16" cy="386.42" rx="19.85" ry="2.22"/><path class="cls-4" d="M442.44,331.17c-10.87-2.87-27.48,19.7-32.52,41.7V340.82c2.53-4.5,7.37-11.27,16.15-18.42,13.65-11.11,26.21-25.38,15.32-28.25-10.2-2.69-25.47,17-31.47,37.66V290.65a43.69,43.69,0,0,1,9.24-10.06c8.61-7,16.53-16,9.66-17.81-5.95-1.57-14.65,9-18.9,20.87V270.3a63.17,63.17,0,0,1,4.43-16c6.32-14,9.74-28.35,1.4-27.28s-13.77,25.94-9.2,45v6.86c-3.08-14-13.67-28.44-20.57-26.62s1,10.8,9.65,17.81c6.55,5.33,9.62,10.33,10.92,13V315.5c-4.95-22.11-21.68-44.93-32.6-42.06s1.67,17.14,15.32,28.26c10.32,8.4,15.19,16.27,17.28,20.56v38.88c-5.29-21.71-21.59-43.61-32.31-40.79-10.89,2.87-1.55,13.3,13.79,25.91a72.45,72.45,0,0,1,18.52,22.53v18.32a5.68,5.68,0,0,0,3.37,0v-7.29c2.13-4.32,7-12.1,17.2-20.4C440.77,348.3,453.33,334,442.44,331.17Z"/><path class="cls-14" d="M120.26,429.46v.11a5.42,5.42,0,0,1-2.07,3.91,12.84,12.84,0,0,1-1.1.88,21.43,21.43,0,0,1-4.14,2.27c-.35.16-.71.31-1.09.45-1.26.5-2.65,1-4.14,1.4l-1.09.3c-1.31.35-2.69.67-4.14,1l-1.09.21c-1.33.26-2.72.48-4.14.69l-1.1.14c-1.34.18-2.72.33-4.14.46l-1.09.1c-1.35.11-2.73.2-4.14.26l-1.09.05q-2,.07-4.14.09H80.47c-1.4,0-2.78,0-4.14-.08l-1.1,0c-1-.05-2.06-.11-3.06-.18l-1.08-.07-1.09-.1c-1.41-.12-2.8-.27-4.14-.44l-1.09-.14-2.52-.38L60.63,440l-1.09-.21c-1.45-.28-2.84-.6-4.15-.94l-.76-.21-.33-.09c-.59-.16-1.17-.34-1.72-.51-.85-.27-1.65-.55-2.42-.84l-1.09-.44a24.07,24.07,0,0,1-3.67-1.87l-.47-.3-.55-.39c-.19-.14-.37-.29-.54-.43-1.58-1.32-2.44-2.74-2.44-4.23,0-.1,0-.21,0-.31v-8.42h78.84v8.74Z"/><path class="cls-5" d="M44.93,420.83v13.79l-.55-.39c-.19-.14-.37-.29-.54-.43v-13Z"/><path class="cls-5" d="M50.16,420.83v16.4l-1.09-.44v-16Z"/><path class="cls-5" d="M55.39,420.82v18.06l-.76-.21-.33-.09V420.82Z"/><path class="cls-5" d="M60.63,420.81V440l-1.09-.21v-19Z"/><path class="cls-5" d="M65.86,420.8v20l-1.09-.14V420.8Z"/><path class="cls-5" d="M71.09,420.8v20.58l-1.09-.1V420.8Z"/><path class="cls-5" d="M76.33,420.79v20.88l-1.1,0V420.79Z"/><path class="cls-5" d="M81.56,420.78v21H80.47v-21Z"/><path class="cls-5" d="M86.79,420.77v20.84l-1.09.05V420.77Z"/><path class="cls-5" d="M92,420.76v20.49l-1.09.1V420.77Z"/><path class="cls-5" d="M97.26,420.76v19.89l-1.1.14v-20Z"/><path class="cls-5" d="M102.49,420.75v19l-1.09.21V420.75Z"/><path class="cls-5" d="M107.72,420.74v17.74l-1.09.3v-18Z"/><path class="cls-5" d="M113,420.73v15.9c-.35.16-.71.31-1.09.45V420.74Z"/><path class="cls-5" d="M118.19,420.73v12.75a12.84,12.84,0,0,1-1.1.88V420.73Z"/><path class="cls-7" d="M120.25,420.83C120.25,427,102.6,432,80.83,432q-4.47,0-8.66-.27c-3.5-.22-6.83-.57-9.91-1-2.76-.42-5.31-.93-7.62-1.51-.71-.18-1.39-.37-2-.56a33.36,33.36,0,0,1-7.18-2.89c-.36-.21-.7-.42-1-.64-1.93-1.32-3-2.76-3-4.28a3,3,0,0,1,0-.42c.77-6,18.11-10.78,39.39-10.78a129.62,129.62,0,0,1,14.81.82c.88.1,1.75.21,2.6.33a79.94,79.94,0,0,1,10,2c.65.18,1.27.36,1.88.56a32.53,32.53,0,0,1,5.52,2.24,11.7,11.7,0,0,1,3.55,2.68,4.27,4.27,0,0,1,1,2.14A3,3,0,0,1,120.25,420.83Z"/><path class="cls-16" d="M119.22,418.27l-47,13.48c-3.5-.22-6.83-.57-9.91-1l53.41-15.12A11.7,11.7,0,0,1,119.22,418.27Z"/><path class="cls-16" d="M98.24,410.78l-52.83,15c-.36-.21-.7-.42-1-.64l51.24-14.66C96.52,410.55,97.39,410.66,98.24,410.78Z"/><path class="cls-16" d="M110.15,413.35,54.64,429.2c-.71-.18-1.39-.37-2-.56l55.68-15.85C108.92,413,109.54,413.15,110.15,413.35Z"/><path class="cls-5" d="M112.34,420.83c0,.14,0,.27,0,.41-.76,4.74-14.59,8.54-31.48,8.54s-30.72-3.8-31.48-8.54c0-.14,0-.27,0-.41,0-4.93,14.14-8.95,31.51-8.95S112.34,415.9,112.34,420.83Z"/><path class="cls-14" d="M112.31,421.24c-.76,4.74-14.59,8.54-31.48,8.54H79.7A101.82,101.82,0,0,1,69,429.12a71.14,71.14,0,0,1-9-1.58c-.67-.17-1.32-.35-1.94-.53a22.37,22.37,0,0,1-6.59-2.94,6.6,6.6,0,0,1-1-.81,3.77,3.77,0,0,1-1.16-2c.76-4.74,14.59-8.54,31.48-8.54,2.14,0,4.23.06,6.25.18,1,.06,2,.13,3,.22a75.72,75.72,0,0,1,10.94,1.7c.69.16,1.35.33,2,.51a27.41,27.41,0,0,1,6.1,2.42,6.67,6.67,0,0,1,3,2.84A2.71,2.71,0,0,1,112.31,421.24Z"/><path class="cls-15" d="M112.11,420.57l-32.41,9.2A101.82,101.82,0,0,1,69,429.12l40.14-11.39A6.67,6.67,0,0,1,112.11,420.57Z"/><path class="cls-15" d="M90.12,413.1l-38.65,11a6.6,6.6,0,0,1-1-.81l36.57-10.38C88.11,412.94,89.12,413,90.12,413.1Z"/><path class="cls-15" d="M103.05,415.31,60,427.54c-.67-.17-1.32-.35-1.94-.53l43-12.21C101.75,415,102.41,415.13,103.05,415.31Z"/><path class="cls-5" d="M85.21,425.91v1.48H78.56V426A88.08,88.08,0,0,1,66.44,425L70,422.73a71.15,71.15,0,0,0,10.89.86c3.16,0,4.29-.19,4.29-.51,0-1.18-18.25-.23-18.25-3.72,0-1.52,3.87-2.79,11.6-3.1V414.8h6.65v1.44a76.2,76.2,0,0,1,9.58.77l-3.35,2.29a64.45,64.45,0,0,0-9.2-.69c-3.25,0-4.29.26-4.29.59,0,1.12,18.25.18,18.25,3.64C96.2,424.29,92.52,425.54,85.21,425.91Z"/><path class="cls-7" d="M85,425.41v1.49H78.37v-1.42a86.17,86.17,0,0,1-12.12-.94l3.58-2.3a71.43,71.43,0,0,0,10.9.85c3.16,0,4.29-.18,4.29-.5,0-1.18-18.25-.23-18.25-3.73,0-1.51,3.86-2.78,11.6-3.09v-1.46H85v1.43a77.81,77.81,0,0,1,9.57.78l-3.35,2.29a64.39,64.39,0,0,0-9.19-.7c-3.26,0-4.29.27-4.29.59,0,1.13,18.25.19,18.25,3.64C96,423.79,92.33,425.05,85,425.41Z"/><path class="cls-14" d="M122.74,415.65v.11a5.4,5.4,0,0,1-2.08,3.91,11.27,11.27,0,0,1-1.09.88,21.73,21.73,0,0,1-4.14,2.27c-.35.16-.72.31-1.09.45-1.26.5-2.65,1-4.14,1.4l-1.09.3c-1.31.35-2.69.67-4.14,1l-1.1.21c-1.33.26-2.71.48-4.14.68-.36.06-.72.11-1.09.15-1.34.18-2.72.33-4.14.46l-1.09.1c-1.35.11-2.74.2-4.14.26l-1.09.05q-2,.07-4.14.09h-1.1c-1.4,0-2.78,0-4.14-.08l-1.09,0c-1-.05-2.06-.11-3.07-.18l-1.07-.07-1.09-.1c-1.42-.12-2.8-.27-4.14-.44l-1.09-.14-2.52-.38-1.62-.29L62,426c-1.45-.29-2.83-.6-4.14-.94l-.77-.21-.32-.09c-.59-.16-1.17-.34-1.73-.51-.84-.27-1.65-.55-2.41-.84L51.55,423a24.07,24.07,0,0,1-3.67-1.87l-.47-.3-.55-.39-.55-.43c-1.57-1.32-2.44-2.74-2.44-4.23,0-.1,0-.21,0-.31V407h78.83l0,8.74Z"/><path class="cls-5" d="M47.41,407v13.79l-.55-.39-.55-.43V407Z"/><path class="cls-5" d="M52.64,407v16.4L51.55,423V407Z"/><path class="cls-5" d="M57.87,407v18.06l-.77-.21-.32-.09V407Z"/><path class="cls-5" d="M63.11,407v19.22L62,426V407Z"/><path class="cls-5" d="M68.34,407v20l-1.09-.14V407Z"/><path class="cls-5" d="M73.57,407v20.58l-1.09-.1V407Z"/><path class="cls-5" d="M78.8,407v20.88l-1.09,0V407Z"/><path class="cls-5" d="M84,407v21h-1.1V407Z"/><path class="cls-5" d="M89.27,407V427.8l-1.09.05V407Z"/><path class="cls-5" d="M94.5,407v20.49l-1.09.1V407Z"/><path class="cls-5" d="M99.73,407v19.88c-.36.06-.72.11-1.09.15V407Z"/><path class="cls-5" d="M105,406.94v19l-1.1.21V406.94Z"/><path class="cls-5" d="M110.2,406.93v17.74l-1.09.3v-18Z"/><path class="cls-5" d="M115.43,406.92v15.9c-.35.16-.72.31-1.09.45V406.92Z"/><path class="cls-5" d="M120.66,406.92v12.75a11.27,11.27,0,0,1-1.09.88V406.92Z"/><path class="cls-7" d="M122.73,407c0,6.18-17.65,11.19-39.42,11.19-3,0-5.88-.09-8.66-.27-3.51-.22-6.83-.58-9.92-1-2.75-.42-5.3-.93-7.62-1.51-.7-.18-1.39-.37-2-.56a33,33,0,0,1-7.17-2.89c-.36-.21-.7-.42-1-.64-1.92-1.32-3-2.76-3-4.28a3,3,0,0,1,0-.42c.76-6,18.11-10.78,39.39-10.78a129.44,129.44,0,0,1,14.8.82c.89.1,1.75.21,2.6.33a79.75,79.75,0,0,1,10,2c.65.18,1.27.36,1.88.56a32.53,32.53,0,0,1,5.52,2.24,11.77,11.77,0,0,1,3.54,2.68,4.29,4.29,0,0,1,1,2.14A3,3,0,0,1,122.73,407Z"/><path class="cls-16" d="M121.69,404.46l-47,13.48c-3.51-.22-6.83-.58-9.92-1l53.42-15.12A11.77,11.77,0,0,1,121.69,404.46Z"/><path class="cls-16" d="M100.71,397l-52.82,15c-.36-.21-.7-.42-1-.64l51.24-14.66C99,396.74,99.86,396.85,100.71,397Z"/><path class="cls-16" d="M112.63,399.54,57.11,415.39c-.7-.18-1.39-.37-2-.56L110.75,399C111.4,399.16,112,399.34,112.63,399.54Z"/><path class="cls-5" d="M114.82,407a2.85,2.85,0,0,1,0,.41C114,412.17,100.2,416,83.31,416s-30.72-3.8-31.48-8.54a2.83,2.83,0,0,1,0-.41c0-4.93,14.13-8.95,31.51-8.95S114.82,402.09,114.82,407Z"/><path class="cls-14" d="M114.78,407.43C114,412.17,100.2,416,83.31,416H82.18a101.48,101.48,0,0,1-10.69-.65,71.14,71.14,0,0,1-9-1.58c-.67-.17-1.32-.35-1.94-.53A22.13,22.13,0,0,1,54,410.26a6.6,6.6,0,0,1-1-.81,3.77,3.77,0,0,1-1.16-2c.76-4.74,14.59-8.54,31.48-8.54,2.13,0,4.22.06,6.24.18,1,.06,2,.13,3,.22a75.65,75.65,0,0,1,11,1.7c.69.16,1.35.33,2,.51a27.12,27.12,0,0,1,6.09,2.42,6.65,6.65,0,0,1,3,2.84A2.69,2.69,0,0,1,114.78,407.43Z"/><path class="cls-15" d="M114.59,406.76,82.18,416a101.48,101.48,0,0,1-10.69-.65l40.13-11.39A6.65,6.65,0,0,1,114.59,406.76Z"/><path class="cls-15" d="M92.59,399.29,54,410.26a6.6,6.6,0,0,1-1-.81l36.56-10.38C90.58,399.13,91.6,399.2,92.59,399.29Z"/><path class="cls-15" d="M105.53,401.5,62.48,413.73c-.67-.17-1.32-.35-1.94-.53l43-12.21C104.23,401.15,104.89,401.32,105.53,401.5Z"/><path class="cls-5" d="M87.69,412.1v1.48H81v-1.42a87.94,87.94,0,0,1-12.12-.93l3.58-2.31a71.38,71.38,0,0,0,10.9.86c3.16,0,4.29-.19,4.29-.51,0-1.18-18.25-.23-18.25-3.72,0-1.52,3.87-2.79,11.6-3.1V401h6.65v1.44a76,76,0,0,1,9.57.77l-3.35,2.29a64.21,64.21,0,0,0-9.19-.69c-3.26,0-4.29.26-4.29.59,0,1.12,18.25.18,18.25,3.64C98.68,410.48,95,411.73,87.69,412.1Z"/><path class="cls-7" d="M87.5,411.6v1.49H80.85v-1.42a86.17,86.17,0,0,1-12.12-.94l3.58-2.3a71.19,71.19,0,0,0,10.89.85c3.16,0,4.3-.18,4.3-.5,0-1.18-18.26-.23-18.26-3.73,0-1.51,3.87-2.78,11.61-3.09V400.5H87.5v1.43a77.81,77.81,0,0,1,9.57.78L93.72,405a64.42,64.42,0,0,0-9.2-.7c-3.25,0-4.29.27-4.29.59,0,1.13,18.25.19,18.25,3.64C98.48,410,94.81,411.24,87.5,411.6Z"/><path class="cls-14" d="M122.37,401.84a.41.41,0,0,1,0,.11,5.4,5.4,0,0,1-2.08,3.91,12.64,12.64,0,0,1-1.09.88,21.73,21.73,0,0,1-4.14,2.27c-.35.16-.72.31-1.09.45-1.27.5-2.65,1-4.14,1.4l-1.09.3c-1.31.35-2.69.67-4.15,1l-1.09.21c-1.33.25-2.71.48-4.14.68-.36.06-.72.11-1.09.15-1.34.18-2.73.33-4.14.46l-1.09.1c-1.36.11-2.74.2-4.14.26l-1.1.05q-2,.07-4.14.09H82.58c-1.4,0-2.78,0-4.14-.08l-1.09,0c-1-.05-2.06-.11-3.07-.18l-1.07-.08c-.37,0-.73-.05-1.09-.09-1.42-.12-2.8-.27-4.14-.44l-1.1-.14q-1.27-.18-2.52-.39l-1.62-.28-1.09-.21c-1.45-.29-2.83-.6-4.14-.94l-.77-.21-.32-.09c-.59-.16-1.17-.34-1.73-.51-.84-.27-1.65-.55-2.41-.84l-1.09-.44a25.68,25.68,0,0,1-3.68-1.87l-.46-.31c-.19-.12-.38-.25-.55-.38l-.55-.43c-1.58-1.32-2.44-2.75-2.44-4.23a3,3,0,0,1,0-.31v-8.42h78.83l0,8.74Z"/><path class="cls-5" d="M47.05,393.21V407c-.19-.12-.38-.25-.55-.38l-.55-.43v-13Z"/><path class="cls-5" d="M52.28,393.21v16.4l-1.09-.44v-16Z"/><path class="cls-5" d="M57.51,393.2v18.06l-.77-.21-.32-.09V393.2Z"/><path class="cls-5" d="M62.74,393.19v19.22l-1.09-.21v-19Z"/><path class="cls-5" d="M68,393.18v20l-1.1-.14v-19.9Z"/><path class="cls-5" d="M73.21,393.17v20.58c-.37,0-.73-.05-1.09-.09V393.18Z"/><path class="cls-5" d="M78.44,393.17v20.88l-1.09,0V393.17Z"/><path class="cls-5" d="M83.67,393.16v21H82.58v-21Z"/><path class="cls-5" d="M88.91,393.15V414l-1.1.05V393.15Z"/><path class="cls-5" d="M94.14,393.14v20.49l-1.09.1V393.15Z"/><path class="cls-5" d="M99.37,393.14V413c-.36.06-.72.11-1.09.15v-20Z"/><path class="cls-5" d="M104.6,393.13v19l-1.09.21V393.13Z"/><path class="cls-5" d="M109.84,393.12v17.74l-1.09.3v-18Z"/><path class="cls-5" d="M115.07,393.11V409c-.35.16-.72.31-1.09.45V393.11Z"/><path class="cls-5" d="M120.3,393.11v12.75a12.64,12.64,0,0,1-1.09.88V393.11Z"/><path class="cls-7" d="M122.37,393.21c0,6.18-17.65,11.19-39.42,11.19-3,0-5.88-.09-8.66-.27-3.51-.22-6.83-.58-9.92-1-2.75-.42-5.31-.93-7.62-1.51-.7-.18-1.39-.37-2-.56a33,33,0,0,1-7.17-2.89c-.36-.21-.7-.42-1-.64-1.92-1.32-3-2.76-3-4.28a3,3,0,0,1,0-.42C44.32,386.8,61.67,382,83,382a129.44,129.44,0,0,1,14.8.82c.88.1,1.75.21,2.6.33a79.75,79.75,0,0,1,10,2c.64.18,1.27.36,1.87.55a33.12,33.12,0,0,1,5.53,2.25,11.61,11.61,0,0,1,3.54,2.68,4.29,4.29,0,0,1,1,2.14A3,3,0,0,1,122.37,393.21Z"/><path class="cls-16" d="M121.33,390.65l-47,13.48c-3.51-.22-6.83-.58-9.92-1L117.79,388A11.61,11.61,0,0,1,121.33,390.65Z"/><path class="cls-16" d="M100.35,383.16l-52.82,15c-.36-.21-.7-.42-1-.64l51.24-14.66C98.63,382.93,99.5,383,100.35,383.16Z"/><path class="cls-16" d="M112.26,385.72,56.75,401.58c-.7-.18-1.39-.37-2-.56l55.69-15.85C111,385.35,111.66,385.53,112.26,385.72Z"/><path class="cls-5" d="M114.45,393.21a2.83,2.83,0,0,1,0,.41c-.76,4.74-14.58,8.54-31.47,8.54s-30.72-3.8-31.48-8.54a2.83,2.83,0,0,1,0-.41c0-4.94,14.13-8.95,31.51-8.95S114.45,388.27,114.45,393.21Z"/><path class="cls-14" d="M114.42,393.62c-.76,4.74-14.58,8.54-31.47,8.54H81.82a101.48,101.48,0,0,1-10.69-.65,70.82,70.82,0,0,1-9-1.58c-.68-.17-1.32-.35-1.95-.53a22.37,22.37,0,0,1-6.59-2.94,7.06,7.06,0,0,1-.95-.81,3.71,3.71,0,0,1-1.16-2c.76-4.74,14.59-8.54,31.48-8.54,2.13,0,4.22.06,6.24.18,1,.06,2,.13,3,.22a75.65,75.65,0,0,1,11,1.7c.68.16,1.35.33,2,.51a27,27,0,0,1,6.1,2.42,6.76,6.76,0,0,1,3,2.84A2.69,2.69,0,0,1,114.42,393.62Z"/><path class="cls-15" d="M114.23,393l-32.41,9.2a101.48,101.48,0,0,1-10.69-.65l40.13-11.39A6.76,6.76,0,0,1,114.23,393Z"/><path class="cls-15" d="M92.23,385.48l-38.65,11a7.06,7.06,0,0,1-.95-.81l36.56-10.38C90.22,385.32,91.24,385.39,92.23,385.48Z"/><path class="cls-15" d="M105.16,387.69l-43,12.23c-.68-.17-1.32-.35-1.95-.53l43-12.21C103.86,387.34,104.53,387.51,105.16,387.69Z"/><path class="cls-5" d="M87.33,398.29v1.48H80.68v-1.42a87.94,87.94,0,0,1-12.12-.93l3.58-2.31A71.28,71.28,0,0,0,83,396c3.16,0,4.29-.19,4.29-.51,0-1.18-18.25-.23-18.25-3.72,0-1.52,3.86-2.79,11.6-3.1v-1.46h6.65v1.44a76,76,0,0,1,9.57.77l-3.35,2.29a64.32,64.32,0,0,0-9.19-.69c-3.26,0-4.29.26-4.29.59,0,1.12,18.25.18,18.25,3.64C98.32,396.67,94.64,397.92,87.33,398.29Z"/><path class="cls-7" d="M87.13,397.79v1.49H80.48v-1.42a86.3,86.3,0,0,1-12.12-.94l3.59-2.3a71.19,71.19,0,0,0,10.89.85c3.16,0,4.29-.18,4.29-.5,0-1.18-18.25-.23-18.25-3.73,0-1.51,3.87-2.78,11.6-3.09v-1.46h6.65v1.43a78,78,0,0,1,9.58.78l-3.35,2.29a64.42,64.42,0,0,0-9.2-.7c-3.25,0-4.29.27-4.29.59,0,1.13,18.25.19,18.25,3.64C98.12,396.17,94.44,397.43,87.13,397.79Z"/><path class="cls-14" d="M120.41,389.49v.11a5.4,5.4,0,0,1-2.07,3.9,11.05,11.05,0,0,1-1.09.89,22.89,22.89,0,0,1-4.14,2.27l-1.09.45c-1.27.5-2.65,1-4.14,1.39l-1.1.31c-1.3.35-2.69.67-4.14,1l-1.09.21c-1.33.25-2.71.48-4.14.68-.36.06-.73.1-1.09.15-1.35.18-2.73.33-4.14.46l-1.1.09q-2,.17-4.14.27l-1.09.05q-2,.07-4.14.09H80.62c-1.4,0-2.78,0-4.14-.08l-1.09,0c-1-.05-2.06-.11-3.07-.18l-1.07-.08-1.1-.09c-1.41-.12-2.79-.27-4.14-.44l-1.09-.15c-.86-.11-1.69-.24-2.52-.38l-1.62-.28-1.09-.21c-1.45-.29-2.83-.6-4.14-1l-.77-.2-.32-.09c-.6-.17-1.17-.34-1.73-.52-.85-.26-1.65-.54-2.41-.84l-1.1-.43A26.07,26.07,0,0,1,45.55,395c-.16-.1-.32-.2-.47-.31s-.37-.25-.54-.39-.38-.28-.55-.43a5.68,5.68,0,0,1-2.44-4.22c0-.11,0-.21,0-.32v-8.41H120.4v8.74Z"/><path class="cls-5" d="M45.08,380.86v13.78c-.19-.13-.37-.25-.54-.39s-.38-.28-.55-.43v-13Z"/><path class="cls-5" d="M50.32,380.85v16.4l-1.1-.43v-16Z"/><path class="cls-5" d="M55.55,380.85v18l-.77-.2-.32-.09V380.85Z"/><path class="cls-5" d="M60.78,380.84v19.22l-1.09-.21v-19Z"/><path class="cls-5" d="M66,380.83v20l-1.09-.15V380.83Z"/><path class="cls-5" d="M71.25,380.82V401.4l-1.1-.09V380.82Z"/><path class="cls-5" d="M76.48,380.82V401.7l-1.09,0V380.82Z"/><path class="cls-5" d="M81.71,380.81v21H80.62v-21Z"/><path class="cls-5" d="M86.94,380.8v20.84l-1.09.05V380.8Z"/><path class="cls-5" d="M92.18,380.79v20.49l-1.1.09V380.79Z"/><path class="cls-5" d="M97.41,380.78v19.89c-.36.06-.73.1-1.09.15v-20Z"/><path class="cls-5" d="M102.64,380.78v19l-1.09.21V380.78Z"/><path class="cls-5" d="M107.88,380.77V398.5l-1.1.31v-18Z"/><path class="cls-5" d="M113.11,380.76v15.9l-1.09.45V380.76Z"/><path class="cls-5" d="M118.34,380.75V393.5a11.05,11.05,0,0,1-1.09.89V380.75Z"/><path class="cls-7" d="M120.4,380.86c0,6.18-17.64,11.19-39.42,11.19-3,0-5.87-.09-8.66-.27-3.5-.22-6.83-.58-9.91-1a76.68,76.68,0,0,1-7.62-1.51c-.71-.18-1.39-.36-2-.55a33.36,33.36,0,0,1-7.18-2.89c-.36-.21-.7-.43-1-.64-1.93-1.32-3-2.77-3-4.28a3,3,0,0,1,0-.42c.77-6,18.11-10.78,39.39-10.78a129.49,129.49,0,0,1,14.81.82c.88.1,1.75.21,2.6.33a79.94,79.94,0,0,1,10,2c.65.18,1.28.36,1.88.55a32.29,32.29,0,0,1,5.53,2.25,11.61,11.61,0,0,1,3.54,2.68,4.19,4.19,0,0,1,1,2.14A2,2,0,0,1,120.4,380.86Z"/><path class="cls-16" d="M119.37,378.3,72.32,391.78c-3.5-.22-6.83-.58-9.91-1l53.42-15.11A11.61,11.61,0,0,1,119.37,378.3Z"/><path class="cls-16" d="M98.39,370.81l-52.83,15c-.36-.21-.7-.43-1-.64l51.24-14.66C96.67,370.58,97.54,370.69,98.39,370.81Z"/><path class="cls-16" d="M110.3,373.37,54.79,389.22c-.71-.18-1.39-.36-2-.55l55.68-15.85C109.07,373,109.7,373.18,110.3,373.37Z"/><path class="cls-5" d="M112.49,380.86a2.93,2.93,0,0,1,0,.41c-.76,4.74-14.59,8.54-31.48,8.54s-30.71-3.8-31.47-8.54a2.93,2.93,0,0,1,0-.41c0-4.94,14.13-8.95,31.5-8.95S112.49,375.92,112.49,380.86Z"/><path class="cls-14" d="M112.46,381.27c-.76,4.74-14.59,8.54-31.48,8.54H79.86a101.48,101.48,0,0,1-10.69-.65,71,71,0,0,1-9-1.58c-.67-.17-1.31-.35-1.94-.53a22.37,22.37,0,0,1-6.59-2.94,7.87,7.87,0,0,1-1-.81,3.72,3.72,0,0,1-1.15-2c.76-4.75,14.58-8.54,31.47-8.54,2.14,0,4.23.06,6.25.18,1,.06,2,.13,3,.22a77.14,77.14,0,0,1,11,1.69c.68.17,1.35.34,2,.52a27,27,0,0,1,6.1,2.41,6.74,6.74,0,0,1,3,2.85A2.34,2.34,0,0,1,112.46,381.27Z"/><path class="cls-15" d="M112.26,380.6l-32.4,9.2a101.48,101.48,0,0,1-10.69-.65l40.13-11.4A6.74,6.74,0,0,1,112.26,380.6Z"/><path class="cls-15" d="M90.27,373.13l-38.65,11a7.87,7.87,0,0,1-1-.81l36.57-10.38C88.26,373,89.28,373,90.27,373.13Z"/><path class="cls-15" d="M103.2,375.34,60.15,387.57c-.67-.17-1.31-.35-1.94-.53l43-12.22C101.9,375,102.57,375.16,103.2,375.34Z"/><path class="cls-5" d="M85.37,385.93v1.49H78.72V386a86.17,86.17,0,0,1-12.12-.94l3.58-2.3a71.15,71.15,0,0,0,10.89.86c3.16,0,4.3-.19,4.3-.51,0-1.18-18.26-.23-18.26-3.73,0-1.51,3.87-2.78,11.61-3.09v-1.46h6.65v1.43a77.81,77.81,0,0,1,9.57.78l-3.35,2.29a64.42,64.42,0,0,0-9.2-.7c-3.25,0-4.29.27-4.29.59,0,1.13,18.25.19,18.25,3.65C96.35,384.31,92.68,385.57,85.37,385.93Z"/><path class="cls-7" d="M85.17,385.44v1.49H78.52v-1.42a87.85,87.85,0,0,1-12.12-.94l3.59-2.3a71.19,71.19,0,0,0,10.89.85c3.16,0,4.29-.19,4.29-.51,0-1.18-18.25-.22-18.25-3.72,0-1.51,3.87-2.79,11.6-3.09v-1.46h6.65v1.43a76.06,76.06,0,0,1,9.58.78l-3.35,2.29a64.53,64.53,0,0,0-9.2-.7c-3.25,0-4.29.27-4.29.59,0,1.12,18.25.19,18.25,3.64C96.16,383.82,92.48,385.08,85.17,385.44Z"/><path class="cls-14" d="M189.94,429.46a.41.41,0,0,1,0,.11,5.4,5.4,0,0,1-2.08,3.91,12.64,12.64,0,0,1-1.09.88,21.73,21.73,0,0,1-4.14,2.27c-.35.16-.72.31-1.09.45-1.27.5-2.65,1-4.14,1.4l-1.09.3c-1.31.35-2.69.67-4.15,1l-1.09.21c-1.33.26-2.71.48-4.14.69l-1.09.14c-1.34.18-2.73.33-4.14.46l-1.09.1c-1.36.11-2.74.2-4.14.26l-1.1.05q-2,.07-4.14.09h-1.09c-1.4,0-2.78,0-4.14-.08l-1.09,0c-1-.05-2.06-.11-3.07-.18l-1.07-.07-1.09-.1c-1.42-.12-2.8-.27-4.14-.44l-1.1-.14-2.52-.38-1.62-.29-1.09-.21c-1.45-.28-2.83-.6-4.14-.94l-.77-.21-.32-.09c-.59-.16-1.17-.34-1.73-.51-.84-.27-1.65-.55-2.41-.84l-1.09-.44a24.69,24.69,0,0,1-3.68-1.87l-.46-.3-.55-.39-.55-.43c-1.58-1.32-2.44-2.74-2.44-4.23,0-.1,0-.21,0-.31v-8.42h78.83l0,8.74Z"/><path class="cls-5" d="M114.62,420.83v13.79l-.55-.39-.55-.43v-13Z"/><path class="cls-5" d="M119.85,420.83v16.4l-1.09-.44v-16Z"/><path class="cls-5" d="M125.08,420.82v18.06l-.77-.21-.32-.09V420.82Z"/><path class="cls-5" d="M130.31,420.81V440l-1.09-.21v-19Z"/><path class="cls-5" d="M135.55,420.8v20l-1.1-.14V420.8Z"/><path class="cls-5" d="M140.78,420.8v20.58l-1.09-.1V420.8Z"/><path class="cls-5" d="M146,420.79v20.88l-1.09,0V420.79Z"/><path class="cls-5" d="M151.24,420.78v21h-1.09v-21Z"/><path class="cls-5" d="M156.48,420.77v20.84l-1.1.05V420.77Z"/><path class="cls-5" d="M161.71,420.76v20.49l-1.09.1V420.77Z"/><path class="cls-5" d="M166.94,420.76v19.89l-1.09.14v-20Z"/><path class="cls-5" d="M172.17,420.75v19l-1.09.21V420.75Z"/><path class="cls-5" d="M177.41,420.74v17.74l-1.09.3v-18Z"/><path class="cls-5" d="M182.64,420.73v15.9c-.35.16-.72.31-1.09.45V420.74Z"/><path class="cls-5" d="M187.87,420.73v12.75a12.64,12.64,0,0,1-1.09.88V420.73Z"/><path class="cls-7" d="M189.94,420.83c0,6.18-17.65,11.19-39.42,11.19-3,0-5.88-.09-8.66-.27-3.51-.22-6.83-.57-9.92-1-2.75-.42-5.31-.93-7.62-1.51-.7-.18-1.39-.37-2-.56a33,33,0,0,1-7.17-2.89c-.36-.21-.7-.42-1-.64-1.92-1.32-3-2.76-3-4.28a2,2,0,0,1,0-.42c.76-6,18.1-10.78,39.39-10.78a129.44,129.44,0,0,1,14.8.82c.88.1,1.75.21,2.6.33a79.75,79.75,0,0,1,10,2c.64.18,1.27.36,1.87.56a32.32,32.32,0,0,1,5.53,2.24,11.77,11.77,0,0,1,3.54,2.68,4.29,4.29,0,0,1,1,2.14A3,3,0,0,1,189.94,420.83Z"/><path class="cls-16" d="M188.9,418.27l-47,13.48c-3.51-.22-6.83-.57-9.92-1l53.42-15.12A11.77,11.77,0,0,1,188.9,418.27Z"/><path class="cls-16" d="M167.92,410.78l-52.82,15c-.36-.21-.7-.42-1-.64l51.24-14.66C166.2,410.55,167.07,410.66,167.92,410.78Z"/><path class="cls-16" d="M179.83,413.35,124.32,429.2c-.7-.18-1.39-.37-2-.56L178,412.79C178.6,413,179.23,413.15,179.83,413.35Z"/><path class="cls-5" d="M182,420.83a2.83,2.83,0,0,1,0,.41c-.76,4.74-14.58,8.54-31.47,8.54S119.8,426,119,421.24a2.83,2.83,0,0,1,0-.41c0-4.93,14.13-8.95,31.51-8.95S182,415.9,182,420.83Z"/><path class="cls-14" d="M182,421.24c-.76,4.74-14.58,8.54-31.47,8.54h-1.13a101.48,101.48,0,0,1-10.69-.65,70.82,70.82,0,0,1-9-1.58c-.68-.17-1.32-.35-2-.53a22.37,22.37,0,0,1-6.59-2.94,7.06,7.06,0,0,1-1-.81,3.71,3.71,0,0,1-1.16-2c.76-4.74,14.59-8.54,31.48-8.54,2.13,0,4.22.06,6.24.18,1,.06,2.05.13,3,.22a75.65,75.65,0,0,1,10.95,1.7c.68.16,1.35.33,2,.51a27,27,0,0,1,6.1,2.42,6.76,6.76,0,0,1,3,2.84A2.69,2.69,0,0,1,182,421.24Z"/><path class="cls-15" d="M181.8,420.57l-32.41,9.2a101.48,101.48,0,0,1-10.69-.65l40.13-11.39A6.76,6.76,0,0,1,181.8,420.57Z"/><path class="cls-15" d="M159.8,413.1l-38.65,11a7.06,7.06,0,0,1-1-.81l36.56-10.38C157.79,412.94,158.81,413,159.8,413.1Z"/><path class="cls-15" d="M172.73,415.31l-43,12.23c-.68-.17-1.32-.35-2-.53l43-12.21C171.43,415,172.1,415.13,172.73,415.31Z"/><path class="cls-5" d="M154.9,425.91v1.48h-6.65V426a87.94,87.94,0,0,1-12.12-.93l3.58-2.31a71.28,71.28,0,0,0,10.9.86c3.16,0,4.29-.19,4.29-.51,0-1.18-18.25-.23-18.25-3.72,0-1.52,3.86-2.79,11.6-3.1V414.8h6.65v1.44a76,76,0,0,1,9.57.77l-3.35,2.29a64.32,64.32,0,0,0-9.19-.69c-3.26,0-4.29.26-4.29.59,0,1.12,18.25.18,18.25,3.64C165.89,424.29,162.21,425.54,154.9,425.91Z"/><path class="cls-7" d="M154.7,425.41v1.49h-6.65v-1.42a86.3,86.3,0,0,1-12.12-.94l3.59-2.3a71.19,71.19,0,0,0,10.89.85c3.16,0,4.29-.18,4.29-.5,0-1.18-18.25-.23-18.25-3.73,0-1.51,3.87-2.78,11.6-3.09v-1.46h6.65v1.43a78,78,0,0,1,9.58.78l-3.35,2.29a64.42,64.42,0,0,0-9.2-.7c-3.25,0-4.29.27-4.29.59,0,1.13,18.25.19,18.25,3.64C165.69,423.79,162,425.05,154.7,425.41Z"/><path class="cls-14" d="M192.42,415.65v.11a5.42,5.42,0,0,1-2.07,3.91,12.64,12.64,0,0,1-1.09.88,21.73,21.73,0,0,1-4.14,2.27c-.35.16-.72.31-1.09.45-1.27.5-2.65,1-4.14,1.4l-1.1.3c-1.3.35-2.69.67-4.14,1l-1.09.21c-1.33.26-2.71.48-4.14.68-.36.06-.73.11-1.09.15-1.35.18-2.73.33-4.14.46l-1.1.1c-1.35.11-2.73.2-4.14.26l-1.09.05q-2,.07-4.14.09h-1.09c-1.4,0-2.78,0-4.14-.08l-1.09,0c-1-.05-2.06-.11-3.07-.18l-1.07-.07-1.1-.1c-1.41-.12-2.79-.27-4.14-.44l-1.09-.14-2.52-.38-1.62-.29L131.7,426c-1.45-.29-2.83-.6-4.14-.94l-.77-.21-.32-.09c-.6-.16-1.17-.34-1.73-.51-.85-.27-1.65-.55-2.41-.84l-1.1-.44a24.55,24.55,0,0,1-3.67-1.87l-.47-.3-.54-.39L116,420c-1.58-1.32-2.44-2.74-2.44-4.23,0-.1,0-.21,0-.31V407h78.83v8.74Z"/><path class="cls-5" d="M117.09,407v13.79l-.54-.39L116,420V407Z"/><path class="cls-5" d="M122.33,407v16.4l-1.1-.44V407Z"/><path class="cls-5" d="M127.56,407v18.06l-.77-.21-.32-.09V407Z"/><path class="cls-5" d="M132.79,407v19.22L131.7,426V407Z"/><path class="cls-5" d="M138,407v20l-1.09-.14V407Z"/><path class="cls-5" d="M143.26,407v20.58l-1.1-.1V407Z"/><path class="cls-5" d="M148.49,407v20.88l-1.09,0V407Z"/><path class="cls-5" d="M153.72,407v21h-1.09V407Z"/><path class="cls-5" d="M159,407V427.8l-1.09.05V407Z"/><path class="cls-5" d="M164.19,407v20.49l-1.1.1V407Z"/><path class="cls-5" d="M169.42,407v19.88c-.36.06-.73.11-1.09.15V407Z"/><path class="cls-5" d="M174.65,406.94v19l-1.09.21V406.94Z"/><path class="cls-5" d="M179.89,406.93v17.74l-1.1.3v-18Z"/><path class="cls-5" d="M185.12,406.92v15.9c-.35.16-.72.31-1.09.45V406.92Z"/><path class="cls-5" d="M190.35,406.92v12.75a12.64,12.64,0,0,1-1.09.88V406.92Z"/><path class="cls-7" d="M192.41,407c0,6.18-17.64,11.19-39.42,11.19-3,0-5.87-.09-8.66-.27-3.5-.22-6.83-.58-9.91-1-2.75-.42-5.31-.93-7.62-1.51-.71-.18-1.39-.37-2-.56a33.36,33.36,0,0,1-7.18-2.89c-.36-.21-.7-.42-1-.64-1.93-1.32-3-2.76-3-4.28a3,3,0,0,1,0-.42c.77-6,18.11-10.78,39.39-10.78a129.49,129.49,0,0,1,14.81.82c.88.1,1.75.21,2.6.33a79.94,79.94,0,0,1,10,2c.65.18,1.28.36,1.88.56a31.86,31.86,0,0,1,5.52,2.24,11.7,11.7,0,0,1,3.55,2.68,4.19,4.19,0,0,1,1,2.14A2,2,0,0,1,192.41,407Z"/><path class="cls-16" d="M191.38,404.46l-47,13.48c-3.5-.22-6.83-.58-9.91-1l53.41-15.12A11.7,11.7,0,0,1,191.38,404.46Z"/><path class="cls-16" d="M170.4,397l-52.83,15c-.36-.21-.7-.42-1-.64l51.24-14.66C168.68,396.74,169.55,396.85,170.4,397Z"/><path class="cls-16" d="M182.31,399.54,126.8,415.39c-.71-.18-1.39-.37-2-.56L180.43,399C181.08,399.16,181.71,399.34,182.31,399.54Z"/><path class="cls-5" d="M184.5,407a2.83,2.83,0,0,1,0,.41c-.76,4.74-14.59,8.54-31.48,8.54s-30.71-3.8-31.47-8.54a2.83,2.83,0,0,1,0-.41c0-4.93,14.13-8.95,31.5-8.95S184.5,402.09,184.5,407Z"/><path class="cls-14" d="M184.47,407.43c-.76,4.74-14.59,8.54-31.48,8.54h-1.12a101.48,101.48,0,0,1-10.69-.65,71,71,0,0,1-9-1.58c-.67-.17-1.31-.35-1.94-.53a22.37,22.37,0,0,1-6.59-2.94,7.87,7.87,0,0,1-1-.81,3.69,3.69,0,0,1-1.15-2c.76-4.74,14.58-8.54,31.47-8.54,2.14,0,4.23.06,6.25.18,1,.06,2,.13,3,.22a75.65,75.65,0,0,1,10.95,1.7q1,.24,2,.51a27,27,0,0,1,6.1,2.42,6.67,6.67,0,0,1,3,2.84A2.34,2.34,0,0,1,184.47,407.43Z"/><path class="cls-15" d="M184.27,406.76l-32.4,9.2a101.48,101.48,0,0,1-10.69-.65l40.13-11.39A6.67,6.67,0,0,1,184.27,406.76Z"/><path class="cls-15" d="M162.28,399.29l-38.65,11a7.87,7.87,0,0,1-1-.81l36.57-10.38C160.27,399.13,161.29,399.2,162.28,399.29Z"/><path class="cls-15" d="M175.21,401.5l-43.05,12.23c-.67-.17-1.31-.35-1.94-.53l43-12.21Q174.25,401.23,175.21,401.5Z"/><path class="cls-5" d="M157.38,412.1v1.48h-6.65v-1.42a87.94,87.94,0,0,1-12.12-.93l3.58-2.31a71.15,71.15,0,0,0,10.89.86c3.16,0,4.3-.19,4.3-.51,0-1.18-18.26-.23-18.26-3.72,0-1.52,3.87-2.79,11.61-3.1V401h6.65v1.44a76,76,0,0,1,9.57.77l-3.35,2.29a64.35,64.35,0,0,0-9.2-.69c-3.25,0-4.29.26-4.29.59,0,1.12,18.25.18,18.25,3.64C168.36,410.48,164.69,411.73,157.38,412.1Z"/><path class="cls-7" d="M157.18,411.6v1.49h-6.65v-1.42a86.3,86.3,0,0,1-12.12-.94l3.59-2.3a71.19,71.19,0,0,0,10.89.85c3.16,0,4.29-.18,4.29-.5,0-1.18-18.25-.23-18.25-3.73,0-1.51,3.87-2.78,11.6-3.09V400.5h6.65v1.43a78,78,0,0,1,9.58.78L163.41,405a64.53,64.53,0,0,0-9.2-.7c-3.25,0-4.29.27-4.29.59,0,1.13,18.25.19,18.25,3.64C168.17,410,164.49,411.24,157.18,411.6Z"/><path class="cls-13" d="M359.73,219v29.68a3.44,3.44,0,0,1-3.43,3.43H326.63a6.52,6.52,0,0,1-5.56-3.94,1.84,1.84,0,0,1-.15-.36q-.09-.25-.18-.54s0,0,0-.05v-.09l-.06-23.41v-6.86a3.43,3.43,0,0,1,3.06-3.41l.36,0,30.28.12a1.84,1.84,0,0,1,.41,0h0C357.83,213.9,359.73,217.17,359.73,219Z"/><path class="cls-5" d="M357.18,216.83v29.66a3.42,3.42,0,0,1-3.42,3.43H324.08a3.44,3.44,0,0,1-3-1.78,1.84,1.84,0,0,1-.15-.36q-.09-.25-.18-.54s0,0,0-.05,0-.06,0-.09a3,3,0,0,1-.06-.61V216.83a3.43,3.43,0,0,1,3.06-3.41l.36,0h29.68a3.1,3.1,0,0,1,1,.16h0A3.4,3.4,0,0,1,357.18,216.83Z"/><path class="cls-4" d="M341.09,241.73l0,3-3.75,0,0-2.82a15.64,15.64,0,0,1-6.83-1.92l2.06-4.57a12.88,12.88,0,0,0,6.14,1.76c1.79,0,2.43-.36,2.43-1,0-2.34-10.31-.53-10.25-7.49,0-3,2.23-5.53,6.61-6.1l0-2.91,3.76,0,0,2.85a14.09,14.09,0,0,1,5.39,1.59l-1.93,4.55a11.44,11.44,0,0,0-5.18-1.43c-1.84,0-2.43.51-2.44,1.15,0,2.24,10.31.46,10.26,7.33C347.32,238.55,345.23,241,341.09,241.73Z"/><polygon class="cls-2" points="377.32 364.32 314.07 364.16 314.07 442.71 377.32 442.92 377.32 364.32"/><path class="cls-2" d="M330.29,374.05a1.21,1.21,0,0,0,1.25-1.09c.37-3.95,2.1-17.16,8.59-21.94a8.33,8.33,0,0,1,6-1.63c11.41,1.07,13.15,19,13.4,23.68a1.21,1.21,0,0,0,1.21,1.13h0a1.2,1.2,0,0,0,1.19-1.26c-.26-5.18-2.13-24.34-15.54-25.6a11,11,0,0,0-7.77,2.12c-7.23,5.31-9,19-9.43,23.28a1.21,1.21,0,0,0,1.14,1.31Z"/><polygon class="cls-2" points="371.81 364.32 308.57 364.16 308.57 442.71 371.81 442.92 371.81 364.32"/><path class="cls-2" d="M327.41,373.65a2.27,2.27,0,1,1-2.27-2.27A2.27,2.27,0,0,1,327.41,373.65Z"/><path class="cls-2" d="M357.87,373.65a2.27,2.27,0,1,1-2.27-2.27A2.27,2.27,0,0,1,357.87,373.65Z"/><path class="cls-2" d="M325.23,374.23a1.2,1.2,0,0,0,1.24-1.08c.38-4,2.1-17.17,8.6-21.95a8.33,8.33,0,0,1,6-1.63c11.41,1.07,13.14,19,13.4,23.68a1.19,1.19,0,0,0,1.2,1.13h0a1.18,1.18,0,0,0,1.19-1.25c-.26-5.19-2.12-24.35-15.54-25.61a11,11,0,0,0-7.77,2.12c-7.22,5.31-9,19-9.42,23.28a1.19,1.19,0,0,0,1.14,1.31Z"/></g></svg>